<svg width="269" height="74" viewBox="0 0 269 74" fill="none" xmlns="http://www.w3.org/2000/svg">
<path d="M127.28 19.84V36.34H149V40.18H127.28V58H122.84V16H151.64V19.84H127.28ZM171.754 58.3C168.714 58.3 165.974 57.62 163.534 56.26C161.094 54.86 159.174 52.94 157.774 50.5C156.374 48.06 155.674 45.3 155.674 42.22C155.674 39.14 156.374 36.38 157.774 33.94C159.174 31.5 161.094 29.6 163.534 28.24C165.974 26.88 168.714 26.2 171.754 26.2C174.794 26.2 177.534 26.88 179.974 28.24C182.414 29.6 184.314 31.5 185.674 33.94C187.074 36.38 187.774 39.14 187.774 42.22C187.774 45.3 187.074 48.06 185.674 50.5C184.314 52.94 182.414 54.86 179.974 56.26C177.534 57.62 174.794 58.3 171.754 58.3ZM171.754 54.52C173.994 54.52 175.994 54.02 177.754 53.02C179.554 51.98 180.954 50.52 181.954 48.64C182.954 46.76 183.454 44.62 183.454 42.22C183.454 39.82 182.954 37.68 181.954 35.8C180.954 33.92 179.554 32.48 177.754 31.48C175.994 30.44 173.994 29.92 171.754 29.92C169.514 29.92 167.494 30.44 165.694 31.48C163.934 32.48 162.534 33.92 161.494 35.8C160.494 37.68 159.994 39.82 159.994 42.22C159.994 44.62 160.494 46.76 161.494 48.64C162.534 50.52 163.934 51.98 165.694 53.02C167.494 54.02 169.514 54.52 171.754 54.52ZM209.371 58.3C206.331 58.3 203.591 57.62 201.151 56.26C198.711 54.86 196.791 52.94 195.391 50.5C193.991 48.06 193.291 45.3 193.291 42.22C193.291 39.14 193.991 36.38 195.391 33.94C196.791 31.5 198.711 29.6 201.151 28.24C203.591 26.88 206.331 26.2 209.371 26.2C212.411 26.2 215.151 26.88 217.591 28.24C220.031 29.6 221.931 31.5 223.291 33.94C224.691 36.38 225.391 39.14 225.391 42.22C225.391 45.3 224.691 48.06 223.291 50.5C221.931 52.94 220.031 54.86 217.591 56.26C215.151 57.62 212.411 58.3 209.371 58.3ZM209.371 54.52C211.611 54.52 213.611 54.02 215.371 53.02C217.171 51.98 218.571 50.52 219.571 48.64C220.571 46.76 221.071 44.62 221.071 42.22C221.071 39.82 220.571 37.68 219.571 35.8C218.571 33.92 217.171 32.48 215.371 31.48C213.611 30.44 211.611 29.92 209.371 29.92C207.131 29.92 205.111 30.44 203.311 31.48C201.551 32.48 200.151 33.92 199.111 35.8C198.111 37.68 197.611 39.82 197.611 42.22C197.611 44.62 198.111 46.76 199.111 48.64C200.151 50.52 201.551 51.98 203.311 53.02C205.111 54.02 207.131 54.52 209.371 54.52ZM262.888 13.48V58H258.808V51.76C257.528 53.88 255.828 55.5 253.708 56.62C251.628 57.74 249.268 58.3 246.628 58.3C243.668 58.3 240.988 57.62 238.588 56.26C236.188 54.9 234.308 53 232.948 50.56C231.588 48.12 230.908 45.34 230.908 42.22C230.908 39.1 231.588 36.32 232.948 33.88C234.308 31.44 236.188 29.56 238.588 28.24C240.988 26.88 243.668 26.2 246.628 26.2C249.188 26.2 251.488 26.74 253.528 27.82C255.608 28.86 257.308 30.4 258.628 32.44V13.48H262.888ZM246.988 54.52C249.188 54.52 251.168 54.02 252.928 53.02C254.728 51.98 256.128 50.52 257.128 48.64C258.168 46.76 258.688 44.62 258.688 42.22C258.688 39.82 258.168 37.68 257.128 35.8C256.128 33.92 254.728 32.48 252.928 31.48C251.168 30.44 249.188 29.92 246.988 29.92C244.748 29.92 242.728 30.44 240.928 31.48C239.168 32.48 237.768 33.92 236.728 35.8C235.728 37.68 235.228 39.82 235.228 42.22C235.228 44.62 235.728 46.76 236.728 48.64C237.768 50.52 239.168 51.98 240.928 53.02C242.728 54.02 244.748 54.52 246.988 54.52Z" fill="black"/>
<path d="M37.14 54.16V58H2.7V54.94L30.54 19.84H3.12V16H36.42V19.06L8.64 54.16H37.14ZM71.6231 43.54H45.2231C45.4631 46.82 46.7231 49.48 49.0031 51.52C51.2831 53.52 54.1631 54.52 57.6431 54.52C59.6031 54.52 61.4031 54.18 63.0431 53.5C64.6831 52.78 66.1031 51.74 67.3031 50.38L69.7031 53.14C68.3031 54.82 66.5431 56.1 64.4231 56.98C62.3431 57.86 60.0431 58.3 57.5231 58.3C54.2831 58.3 51.4031 57.62 48.8831 56.26C46.4031 54.86 44.4631 52.94 43.0631 50.5C41.6631 48.06 40.9631 45.3 40.9631 42.22C40.9631 39.14 41.6231 36.38 42.9431 33.94C44.3031 31.5 46.1431 29.6 48.4631 28.24C50.8231 26.88 53.4631 26.2 56.3831 26.2C59.3031 26.2 61.9231 26.88 64.2431 28.24C66.5631 29.6 68.3831 31.5 69.7031 33.94C71.0231 36.34 71.6831 39.1 71.6831 42.22L71.6231 43.54ZM56.3831 29.86C53.3431 29.86 50.7831 30.84 48.7031 32.8C46.6631 34.72 45.5031 37.24 45.2231 40.36H67.6031C67.3231 37.24 66.1431 34.72 64.0631 32.8C62.0231 30.84 59.4631 29.86 56.3831 29.86ZM96.4341 26.2C100.394 26.2 103.534 27.36 105.854 29.68C108.214 31.96 109.394 35.3 109.394 39.7V58H105.134V40.12C105.134 36.84 104.314 34.34 102.674 32.62C101.034 30.9 98.6941 30.04 95.6541 30.04C92.2541 30.04 89.5541 31.06 87.5541 33.1C85.5941 35.1 84.6141 37.88 84.6141 41.44V58H80.3541V26.44H84.4341V32.26C85.5941 30.34 87.1941 28.86 89.2341 27.82C91.3141 26.74 93.7141 26.2 96.4341 26.2Z" fill="#0468E7"/>
</svg>
